{
	"asset":{
		"generator":"Khronos glTF Blender I/O v4.4.55",
		"version":"2.0"
	},
	"extensionsUsed":[
		"KHR_materials_emissive_strength",
		"KHR_texture_transform"
	],
	"extensionsRequired":[
		"KHR_texture_transform"
	],
	"scene":0,
	"scenes":[
		{
			"name":"Scene",
			"nodes":[
				0
			]
		}
	],
	"nodes":[
		{
			"mesh":0,
			"name":"Lights",
			"scale":[
				6.796306133270264,
				6.796306133270264,
				6.796306133270264
			],
			"translation":[
				3.6295509338378906,
				0.4014320373535156,
				6.1478424072265625
			]
		}
	],
	"materials":[
		{
			"doubleSided":true,
			"name":"Marble.001",
			"normalTexture":{
				"extensions":{
					"KHR_texture_transform":{
						"offset":[
							0,
							-1
						],
						"scale":[
							2,
							2
						]
					}
				},
				"index":0,
				"scale":0.25
			},
			"pbrMetallicRoughness":{
				"baseColorTexture":{
					"extensions":{
						"KHR_texture_transform":{
							"offset":[
								0,
								-39
							],
							"scale":[
								40,
								40
							]
						}
					},
					"index":1
				},
				"metallicFactor":0.37272727489471436,
				"metallicRoughnessTexture":{
					"extensions":{
						"KHR_texture_transform":{
							"offset":[
								0,
								-1
							],
							"scale":[
								2,
								2
							]
						}
					},
					"index":2
				}
			}
		},
		{
			"alphaMode":"BLEND",
			"doubleSided":true,
			"name":"Glass",
			"normalTexture":{
				"index":3,
				"scale":0.10000000149011612,
				"texCoord":1
			},
			"pbrMetallicRoughness":{
				"baseColorFactor":[
					0.6443073153495789,
					0.619080126285553,
					0.549913763999939,
					1
				],
				"baseColorTexture":{
					"index":4,
					"texCoord":1
				},
				"metallicRoughnessTexture":{
					"index":5,
					"texCoord":1
				}
			}
		},
		{
			"doubleSided":true,
			"emissiveFactor":[
				1,
				1,
				1
			],
			"extensions":{
				"KHR_materials_emissive_strength":{
					"emissiveStrength":10
				}
			},
			"name":"Material.234",
			"pbrMetallicRoughness":{
				"baseColorFactor":[
					0.800000011920929,
					0.800000011920929,
					0.800000011920929,
					1
				],
				"metallicFactor":0,
				"roughnessFactor":0.5
			}
		},
		{
			"doubleSided":true,
			"name":"Material.277",
			"pbrMetallicRoughness":{
				"baseColorFactor":[
					0,
					0,
					0,
					1
				],
				"metallicFactor":0,
				"roughnessFactor":0.5
			}
		}
	],
	"meshes":[
		{
			"name":"Mesh",
			"primitives":[
				{
					"attributes":{
						"POSITION":0,
						"NORMAL":1,
						"TEXCOORD_0":2,
						"TEXCOORD_1":3
					},
					"indices":4,
					"material":0
				},
				{
					"attributes":{
						"POSITION":5,
						"NORMAL":6,
						"TEXCOORD_0":7,
						"TEXCOORD_1":8
					},
					"indices":9,
					"material":1
				},
				{
					"attributes":{
						"POSITION":10,
						"NORMAL":11,
						"TEXCOORD_0":12,
						"TEXCOORD_1":13
					},
					"indices":14,
					"material":2
				},
				{
					"attributes":{
						"POSITION":15,
						"NORMAL":16,
						"TEXCOORD_0":17,
						"TEXCOORD_1":18
					},
					"indices":19,
					"material":3
				}
			]
		}
	],
	"textures":[
		{
			"sampler":0,
			"source":0
		},
		{
			"sampler":0,
			"source":1
		},
		{
			"sampler":0,
			"source":2
		},
		{
			"sampler":0,
			"source":3
		},
		{
			"sampler":0,
			"source":4
		},
		{
			"sampler":0,
			"source":5
		}
	],
	"images":[
		{
			"mimeType":"image/jpeg",
			"name":"marble-10_normal",
			"uri":"marble-10_normal.jpg"
		},
		{
			"mimeType":"image/jpeg",
			"name":"marble-10_diffuse",
			"uri":"marble-10_diffuse.jpg"
		},
		{
			"mimeType":"image/png",
			"name":"marble-10_smooth",
			"uri":"marble-10_smooth.png"
		},
		{
			"mimeType":"image/jpeg",
			"name":"garage_floor_nor_gl_4k",
			"uri":"garage_floor_nor_gl_4k.jpg"
		},
		{
			"mimeType":"image/png",
			"name":"SP_2K_Roughness",
			"uri":"SP_2K_Roughness.png"
		},
		{
			"mimeType":"image/png",
			"name":"SP_2K_Roughness",
			"uri":"SP_2K_Roughness-1.png"
		}
	],
	"accessors":[
		{
			"bufferView":0,
			"componentType":5126,
			"count":65378,
			"max":[
				10.831547737121582,
				7.4376020431518555,
				14.221331596374512
			],
			"min":[
				-14.976792335510254,
				-0.41524094343185425,
				-16.390335083007812
			],
			"type":"VEC3"
		},
		{
			"bufferView":1,
			"componentType":5126,
			"count":65378,
			"type":"VEC3"
		},
		{
			"bufferView":2,
			"componentType":5126,
			"count":65378,
			"type":"VEC2"
		},
		{
			"bufferView":3,
			"componentType":5126,
			"count":65378,
			"type":"VEC2"
		},
		{
			"bufferView":4,
			"componentType":5123,
			"count":152832,
			"type":"SCALAR"
		},
		{
			"bufferView":5,
			"componentType":5126,
			"count":1205,
			"max":[
				4.558771133422852,
				7.197175979614258,
				3.1767404079437256
			],
			"min":[
				-2.7194533348083496,
				7.00299596786499,
				-13.456916809082031
			],
			"type":"VEC3"
		},
		{
			"bufferView":6,
			"componentType":5126,
			"count":1205,
			"type":"VEC3"
		},
		{
			"bufferView":7,
			"componentType":5126,
			"count":1205,
			"type":"VEC2"
		},
		{
			"bufferView":8,
			"componentType":5126,
			"count":1205,
			"type":"VEC2"
		},
		{
			"bufferView":9,
			"componentType":5123,
			"count":6240,
			"type":"SCALAR"
		},
		{
			"bufferView":10,
			"componentType":5126,
			"count":66644,
			"max":[
				10.995656967163086,
				-0.2546221911907196,
				14.385440826416016
			],
			"min":[
				-15.135032653808594,
				-0.5828434228897095,
				-16.554443359375
			],
			"type":"VEC3"
		},
		{
			"bufferView":11,
			"componentType":5126,
			"count":66644,
			"type":"VEC3"
		},
		{
			"bufferView":12,
			"componentType":5126,
			"count":66644,
			"type":"VEC2"
		},
		{
			"bufferView":13,
			"componentType":5126,
			"count":66644,
			"type":"VEC2"
		},
		{
			"bufferView":14,
			"componentType":5125,
			"count":113904,
			"type":"SCALAR"
		},
		{
			"bufferView":15,
			"componentType":5126,
			"count":1834,
			"max":[
				-7.116766929626465,
				5.688380718231201,
				10.753655433654785
			],
			"min":[
				-9.790291786193848,
				0.948464572429657,
				8.069019317626953
			],
			"type":"VEC3"
		},
		{
			"bufferView":16,
			"componentType":5126,
			"count":1834,
			"type":"VEC3"
		},
		{
			"bufferView":17,
			"componentType":5126,
			"count":1834,
			"type":"VEC2"
		},
		{
			"bufferView":18,
			"componentType":5126,
			"count":1834,
			"type":"VEC2"
		},
		{
			"bufferView":19,
			"componentType":5123,
			"count":3072,
			"type":"SCALAR"
		}
	],
	"bufferViews":[
		{
			"buffer":0,
			"byteLength":784536,
			"byteOffset":0,
			"target":34962
		},
		{
			"buffer":0,
			"byteLength":784536,
			"byteOffset":784536,
			"target":34962
		},
		{
			"buffer":0,
			"byteLength":523024,
			"byteOffset":1569072,
			"target":34962
		},
		{
			"buffer":0,
			"byteLength":523024,
			"byteOffset":2092096,
			"target":34962
		},
		{
			"buffer":0,
			"byteLength":305664,
			"byteOffset":2615120,
			"target":34963
		},
		{
			"buffer":0,
			"byteLength":14460,
			"byteOffset":2920784,
			"target":34962
		},
		{
			"buffer":0,
			"byteLength":14460,
			"byteOffset":2935244,
			"target":34962
		},
		{
			"buffer":0,
			"byteLength":9640,
			"byteOffset":2949704,
			"target":34962
		},
		{
			"buffer":0,
			"byteLength":9640,
			"byteOffset":2959344,
			"target":34962
		},
		{
			"buffer":0,
			"byteLength":12480,
			"byteOffset":2968984,
			"target":34963
		},
		{
			"buffer":0,
			"byteLength":799728,
			"byteOffset":2981464,
			"target":34962
		},
		{
			"buffer":0,
			"byteLength":799728,
			"byteOffset":3781192,
			"target":34962
		},
		{
			"buffer":0,
			"byteLength":533152,
			"byteOffset":4580920,
			"target":34962
		},
		{
			"buffer":0,
			"byteLength":533152,
			"byteOffset":5114072,
			"target":34962
		},
		{
			"buffer":0,
			"byteLength":455616,
			"byteOffset":5647224,
			"target":34963
		},
		{
			"buffer":0,
			"byteLength":22008,
			"byteOffset":6102840,
			"target":34962
		},
		{
			"buffer":0,
			"byteLength":22008,
			"byteOffset":6124848,
			"target":34962
		},
		{
			"buffer":0,
			"byteLength":14672,
			"byteOffset":6146856,
			"target":34962
		},
		{
			"buffer":0,
			"byteLength":14672,
			"byteOffset":6161528,
			"target":34962
		},
		{
			"buffer":0,
			"byteLength":6144,
			"byteOffset":6176200,
			"target":34963
		}
	],
	"samplers":[
		{
			"magFilter":9729,
			"minFilter":9987
		}
	],
	"buffers":[
		{
			"byteLength":6182344,
			"uri":"Daniel.bin"
		}
	]
}
