{
	"asset":{
		"generator":"Khronos glTF Blender I/O v3.5.30",
		"version":"2.0"
	},
	"scene":0,
	"scenes":[
		{
			"name":"Scene",
			"nodes":[
				0
			]
		}
	],
	"nodes":[
		{
			"mesh":0,
			"name":"ArmChair_01"
		}
	],
	"materials":[
		{
			"doubleSided":true,
			"name":"Armchair_01",
			"normalTexture":{
				"index":0
			},
			"pbrMetallicRoughness":{
				"baseColorTexture":{
					"index":1
				},
				"metallicRoughnessTexture":{
					"index":2
				}
			}
		}
	],
	"meshes":[
		{
			"name":"Cylinder.001",
			"primitives":[
				{
					"attributes":{
						"POSITION":0,
						"TEXCOORD_0":1,
						"NORMAL":2
					},
					"indices":3,
					"material":0
				}
			]
		}
	],
	"textures":[
		{
			"sampler":0,
			"source":0
		},
		{
			"sampler":0,
			"source":1
		},
		{
			"sampler":0,
			"source":2
		}
	],
	"images":[
		{
			"mimeType":"image/png",
			"name":"Armchair_01_nor_gl",
			"uri":"Armchair_01_nor_gl.png"
		},
		{
			"mimeType":"image/jpeg",
			"name":"Armchair_01_diff",
			"uri":"Armchair_01_diff.jpg"
		},
		{
			"mimeType":"image/png",
			"name":"Armchair_01_metallic-Armchair_01_roughness",
			"uri":"Armchair_01_metallic-Armchair_01_roughness.png"
		}
	],
	"accessors":[
		{
			"bufferView":0,
			"componentType":5126,
			"count":3749,
			"max":[
				0.4242154657840729,
				1.064656138420105,
				0.34845367074012756
			],
			"min":[
				-0.4242154359817505,
				-0.0004314967372920364,
				-0.4173066020011902
			],
			"type":"VEC3"
		},
		{
			"bufferView":1,
			"componentType":5126,
			"count":3749,
			"type":"VEC2"
		},
		{
			"bufferView":2,
			"componentType":5126,
			"count":3749,
			"type":"VEC3"
		},
		{
			"bufferView":3,
			"componentType":5123,
			"count":16878,
			"type":"SCALAR"
		}
	],
	"bufferViews":[
		{
			"buffer":0,
			"byteLength":44988,
			"byteOffset":0,
			"target":34962
		},
		{
			"buffer":0,
			"byteLength":29992,
			"byteOffset":44988,
			"target":34962
		},
		{
			"buffer":0,
			"byteLength":44988,
			"byteOffset":74980,
			"target":34962
		},
		{
			"buffer":0,
			"byteLength":33756,
			"byteOffset":119968,
			"target":34963
		}
	],
	"samplers":[
		{
			"magFilter":9729,
			"minFilter":9987
		}
	],
	"buffers":[
		{
			"byteLength":153724,
			"uri":"ArmChair_01_1k.bin"
		}
	]
}
