{
	"asset":{
		"generator":"Khronos glTF Blender I/O v4.4.55",
		"version":"2.0"
	},
	"scene":0,
	"scenes":[
		{
			"name":"Scene",
			"nodes":[
				0
			]
		}
	],
	"nodes":[
		{
			"mesh":0,
			"name":"Lights.002",
			"scale":[
				6.796306133270264,
				6.796306133270264,
				6.796306133270264
			],
			"translation":[
				3.6295509338378906,
				0.4014320373535156,
				6.1478424072265625
			]
		}
	],
	"materials":[
		{
			"doubleSided":true,
			"name":"Light iron",
			"normalTexture":{
				"index":0,
				"scale":0.30000001192092896,
				"texCoord":1
			},
			"pbrMetallicRoughness":{
				"baseColorTexture":{
					"index":1,
					"texCoord":1
				},
				"metallicRoughnessTexture":{
					"index":2,
					"texCoord":1
				}
			}
		}
	],
	"meshes":[
		{
			"name":"Lights.003",
			"primitives":[
				{
					"attributes":{
						"POSITION":0,
						"NORMAL":1,
						"TEXCOORD_0":2,
						"TEXCOORD_1":3
					},
					"indices":4,
					"material":0
				}
			]
		}
	],
	"textures":[
		{
			"sampler":0,
			"source":0
		},
		{
			"sampler":0,
			"source":1
		},
		{
			"sampler":0,
			"source":2
		}
	],
	"images":[
		{
			"mimeType":"image/jpeg",
			"name":"tiled_plane_DefaultMaterial_Normal",
			"uri":"tiled_plane_DefaultMaterial_Normal.jpg"
		},
		{
			"mimeType":"image/jpeg",
			"name":"tiled_plane_DefaultMaterial_BaseColor",
			"uri":"tiled_plane_DefaultMaterial_BaseColor.jpg"
		},
		{
			"mimeType":"image/png",
			"name":"tiled_plane_DefaultMaterial_Roughness",
			"uri":"tiled_plane_DefaultMaterial_Roughness.png"
		}
	],
	"accessors":[
		{
			"bufferView":0,
			"componentType":5126,
			"count":1048,
			"max":[
				10.831544876098633,
				-0.3535095453262329,
				14.221329689025879
			],
			"min":[
				-15.017271041870117,
				-0.42679107189178467,
				-16.390329360961914
			],
			"type":"VEC3"
		},
		{
			"bufferView":1,
			"componentType":5126,
			"count":1048,
			"type":"VEC3"
		},
		{
			"bufferView":2,
			"componentType":5126,
			"count":1048,
			"type":"VEC2"
		},
		{
			"bufferView":3,
			"componentType":5126,
			"count":1048,
			"type":"VEC2"
		},
		{
			"bufferView":4,
			"componentType":5123,
			"count":3816,
			"type":"SCALAR"
		}
	],
	"bufferViews":[
		{
			"buffer":0,
			"byteLength":12576,
			"byteOffset":0,
			"target":34962
		},
		{
			"buffer":0,
			"byteLength":12576,
			"byteOffset":12576,
			"target":34962
		},
		{
			"buffer":0,
			"byteLength":8384,
			"byteOffset":25152,
			"target":34962
		},
		{
			"buffer":0,
			"byteLength":8384,
			"byteOffset":33536,
			"target":34962
		},
		{
			"buffer":0,
			"byteLength":7632,
			"byteOffset":41920,
			"target":34963
		}
	],
	"samplers":[
		{
			"magFilter":9729,
			"minFilter":9987
		}
	],
	"buffers":[
		{
			"byteLength":49552,
			"uri":"Daniel.bin"
		}
	]
}
