{
	"asset":{
		"generator":"Khronos glTF Blender I/O v3.5.30",
		"version":"2.0"
	},
	"scene":0,
	"scenes":[
		{
			"name":"Scene",
			"nodes":[
				0
			]
		}
	],
	"nodes":[
		{
			"mesh":0,
			"name":"side_table_tall_01"
		}
	],
	"materials":[
		{
			"doubleSided":true,
			"name":"side_table_tall_01",
			"normalTexture":{
				"index":0
			},
			"pbrMetallicRoughness":{
				"baseColorTexture":{
					"index":1
				},
				"metallicRoughnessTexture":{
					"index":2
				}
			}
		}
	],
	"meshes":[
		{
			"name":"Cube.001",
			"primitives":[
				{
					"attributes":{
						"POSITION":0,
						"TEXCOORD_0":1,
						"NORMAL":2
					},
					"indices":3,
					"material":0
				}
			]
		}
	],
	"textures":[
		{
			"sampler":0,
			"source":0
		},
		{
			"sampler":0,
			"source":1
		},
		{
			"sampler":0,
			"source":2
		}
	],
	"images":[
		{
			"mimeType":"image/png",
			"name":"side_table_tall_01_gl_normal",
			"uri":"side_table_tall_01_gl_normal.png"
		},
		{
			"mimeType":"image/jpeg",
			"name":"side_table_tall_01_BaseColor.png",
			"uri":"side_table_tall_01_BaseColor_png.jpg"
		},
		{
			"mimeType":"image/png",
			"name":"side_table_tall_01_metallic-side_table_tall_01_roughness",
			"uri":"side_table_tall_01_metallic-side_table_tall_01_roughness.png"
		}
	],
	"accessors":[
		{
			"bufferView":0,
			"componentType":5126,
			"count":4542,
			"max":[
				0.19199135899543762,
				0.7611303329467773,
				0.19199137389659882
			],
			"min":[
				-0.19199135899543762,
				-2.1163985366001725e-05,
				-0.19199134409427643
			],
			"type":"VEC3"
		},
		{
			"bufferView":1,
			"componentType":5126,
			"count":4542,
			"type":"VEC2"
		},
		{
			"bufferView":2,
			"componentType":5126,
			"count":4542,
			"type":"VEC3"
		},
		{
			"bufferView":3,
			"componentType":5123,
			"count":19224,
			"type":"SCALAR"
		}
	],
	"bufferViews":[
		{
			"buffer":0,
			"byteLength":54504,
			"byteOffset":0,
			"target":34962
		},
		{
			"buffer":0,
			"byteLength":36336,
			"byteOffset":54504,
			"target":34962
		},
		{
			"buffer":0,
			"byteLength":54504,
			"byteOffset":90840,
			"target":34962
		},
		{
			"buffer":0,
			"byteLength":38448,
			"byteOffset":145344,
			"target":34963
		}
	],
	"samplers":[
		{
			"magFilter":9729,
			"minFilter":9987
		}
	],
	"buffers":[
		{
			"byteLength":183792,
			"uri":"side_table_tall_01_4k.bin"
		}
	]
}
